# Blender v2.93.2 OBJ File: 'chip.blend'
# www.blender.org
o Cylinder.001
v 0.000000 -0.002000 -0.019500
v 0.000000 0.002000 -0.019500
v 0.005047 -0.002000 -0.018836
v 0.005047 0.002000 -0.018836
v 0.009750 -0.002000 -0.016887
v 0.009750 0.002000 -0.016887
v 0.013789 -0.002000 -0.013789
v 0.013789 0.002000 -0.013789
v 0.016887 -0.002000 -0.009750
v 0.016887 0.002000 -0.009750
v 0.018836 -0.002000 -0.005047
v 0.018836 0.002000 -0.005047
v 0.019500 -0.002000 0.000000
v 0.019500 0.002000 0.000000
v 0.018836 -0.002000 0.005047
v 0.018836 0.002000 0.005047
v 0.016887 -0.002000 0.009750
v 0.016887 0.002000 0.009750
v 0.013789 -0.002000 0.013789
v 0.013789 0.002000 0.013789
v 0.009750 -0.002000 0.016887
v 0.009750 0.002000 0.016887
v 0.005047 -0.002000 0.018836
v 0.005047 0.002000 0.018836
v -0.000000 -0.002000 0.019500
v -0.000000 0.002000 0.019500
v -0.005047 -0.002000 0.018836
v -0.005047 0.002000 0.018836
v -0.009750 -0.002000 0.016887
v -0.009750 0.002000 0.016887
v -0.013789 -0.002000 0.013789
v -0.013789 0.002000 0.013789
v -0.016887 -0.002000 0.009750
v -0.016887 0.002000 0.009750
v -0.018836 -0.002000 0.005047
v -0.018836 0.002000 0.005047
v -0.019500 -0.002000 -0.000000
v -0.019500 0.002000 -0.000000
v -0.018836 -0.002000 -0.005047
v -0.018836 0.002000 -0.005047
v -0.016887 -0.002000 -0.009750
v -0.016887 0.002000 -0.009750
v -0.013789 -0.002000 -0.013789
v -0.013789 0.002000 -0.013789
v -0.009750 -0.002000 -0.016887
v -0.009750 0.002000 -0.016887
v -0.005047 -0.002000 -0.018836
v -0.005047 0.002000 -0.018836
vt 0.500000 0.982686
vt 0.624928 0.966239
vt 0.500000 0.982686
vt 0.624928 0.966239
vt 0.741343 0.918018
vt 0.741343 0.918018
vt 0.841310 0.841310
vt 0.841310 0.841310
vt 0.918018 0.741343
vt 0.918018 0.741343
vt 0.966239 0.624928
vt 0.966239 0.624928
vt 0.982686 0.500000
vt 0.982686 0.500000
vt 0.966239 0.375072
vt 0.966239 0.375072
vt 0.918018 0.258657
vt 0.918018 0.258657
vt 0.841310 0.158690
vt 0.841310 0.158690
vt 0.741343 0.081982
vt 0.741343 0.081982
vt 0.624928 0.033761
vt 0.624928 0.033761
vt 0.500000 0.017314
vt 0.500000 0.017314
vt 0.375072 0.033761
vt 0.375072 0.033761
vt 0.258657 0.081982
vt 0.258657 0.081982
vt 0.158690 0.158690
vt 0.158690 0.158690
vt 0.081982 0.258657
vt 0.081982 0.258657
vt 0.033761 0.375072
vt 0.033761 0.375072
vt 0.017314 0.500000
vt 0.017314 0.500000
vt 0.033761 0.624928
vt 0.033761 0.624928
vt 0.081982 0.741343
vt 0.081982 0.741343
vt 0.158690 0.841310
vt 0.158690 0.841310
vt 0.258657 0.918018
vt 0.258657 0.918018
vt 0.375072 0.966239
vt 0.375072 0.966239
vn -0.0000 0.0000 -1.0000
vn 0.2588 0.0000 -0.9659
vn 0.5000 0.0000 -0.8660
vn 0.7071 0.0000 -0.7071
vn 0.8660 0.0000 -0.5000
vn 0.9659 0.0000 -0.2588
vn 1.0000 0.0000 0.0000
vn 0.9659 0.0000 0.2588
vn 0.8660 0.0000 0.5000
vn 0.7071 0.0000 0.7071
vn 0.5000 0.0000 0.8660
vn 0.2588 0.0000 0.9659
vn -0.0000 0.0000 1.0000
vn -0.2588 0.0000 0.9659
vn -0.5000 0.0000 0.8660
vn -0.7071 0.0000 0.7071
vn -0.8660 0.0000 0.5000
vn -0.9659 0.0000 0.2588
vn -1.0000 0.0000 -0.0000
vn -0.9659 0.0000 -0.2588
vn -0.8660 0.0000 -0.5000
vn -0.7071 0.0000 -0.7071
vn -0.5000 0.0000 -0.8660
vn 0.0000 1.0000 0.0000
vn -0.2588 0.0000 -0.9659
vn 0.0000 -1.0000 -0.0000
s 1
f 2/1/1 3/2/2 1/3/1
f 4/4/2 5/5/3 3/2/2
f 6/6/3 7/7/4 5/5/3
f 8/8/4 9/9/5 7/7/4
f 10/10/5 11/11/6 9/9/5
f 12/12/6 13/13/7 11/11/6
f 14/14/7 15/15/8 13/13/7
f 16/16/8 17/17/9 15/15/8
f 18/18/9 19/19/10 17/17/9
f 20/20/10 21/21/11 19/19/10
f 22/22/11 23/23/12 21/21/11
f 24/24/12 25/25/13 23/23/12
f 26/26/13 27/27/14 25/25/13
f 28/28/14 29/29/15 27/27/14
f 30/30/15 31/31/16 29/29/15
f 32/32/16 33/33/17 31/31/16
f 34/34/17 35/35/18 33/33/17
f 36/36/18 37/37/19 35/35/18
f 38/38/19 39/39/20 37/37/19
f 40/40/20 41/41/21 39/39/20
f 42/42/21 43/43/22 41/41/21
f 44/44/22 45/45/23 43/43/22
f 14/14/24 6/6/24 38/38/24
f 46/46/23 47/47/25 45/45/23
f 48/48/25 1/3/1 47/47/25
f 31/31/26 39/39/26 47/47/26
f 2/1/1 4/4/2 3/2/2
f 4/4/2 6/6/3 5/5/3
f 6/6/3 8/8/4 7/7/4
f 8/8/4 10/10/5 9/9/5
f 10/10/5 12/12/6 11/11/6
f 12/12/6 14/14/7 13/13/7
f 14/14/7 16/16/8 15/15/8
f 16/16/8 18/18/9 17/17/9
f 18/18/9 20/20/10 19/19/10
f 20/20/10 22/22/11 21/21/11
f 22/22/11 24/24/12 23/23/12
f 24/24/12 26/26/13 25/25/13
f 26/26/13 28/28/14 27/27/14
f 28/28/14 30/30/15 29/29/15
f 30/30/15 32/32/16 31/31/16
f 32/32/16 34/34/17 33/33/17
f 34/34/17 36/36/18 35/35/18
f 36/36/18 38/38/19 37/37/19
f 38/38/19 40/40/20 39/39/20
f 40/40/20 42/42/21 41/41/21
f 42/42/21 44/44/22 43/43/22
f 44/44/22 46/46/23 45/45/23
f 6/6/24 4/4/24 46/46/24
f 4/4/24 2/1/24 46/46/24
f 2/1/24 48/48/24 46/46/24
f 46/46/24 44/44/24 42/42/24
f 42/42/24 40/40/24 46/46/24
f 40/40/24 38/38/24 46/46/24
f 38/38/24 36/36/24 34/34/24
f 34/34/24 32/32/24 38/38/24
f 32/32/24 30/30/24 38/38/24
f 30/30/24 28/28/24 22/22/24
f 28/28/24 26/26/24 22/22/24
f 26/26/24 24/24/24 22/22/24
f 22/22/24 20/20/24 14/14/24
f 20/20/24 18/18/24 14/14/24
f 18/18/24 16/16/24 14/14/24
f 14/14/24 12/12/24 10/10/24
f 10/10/24 8/8/24 14/14/24
f 8/8/24 6/6/24 14/14/24
f 6/6/24 46/46/24 38/38/24
f 38/38/24 30/30/24 22/22/24
f 22/22/24 14/14/24 38/38/24
f 46/46/23 48/48/25 47/47/25
f 48/48/25 2/1/1 1/3/1
f 47/47/26 1/3/26 3/2/26
f 3/2/26 5/5/26 7/7/26
f 7/7/26 9/9/26 11/11/26
f 11/11/26 13/13/26 7/7/26
f 13/13/26 15/15/26 7/7/26
f 15/15/26 17/17/26 19/19/26
f 19/19/26 21/21/26 23/23/26
f 23/23/26 25/25/26 27/27/26
f 27/27/26 29/29/26 31/31/26
f 31/31/26 33/33/26 35/35/26
f 35/35/26 37/37/26 31/31/26
f 37/37/26 39/39/26 31/31/26
f 39/39/26 41/41/26 43/43/26
f 43/43/26 45/45/26 39/39/26
f 45/45/26 47/47/26 39/39/26
f 47/47/26 3/2/26 7/7/26
f 15/15/26 19/19/26 23/23/26
f 23/23/26 27/27/26 15/15/26
f 27/27/26 31/31/26 15/15/26
f 47/47/26 7/7/26 31/31/26
f 7/7/26 15/15/26 31/31/26
